<svg width="539" height="465" viewBox="0 0 539 465" fill="none" xmlns="http://www.w3.org/2000/svg">
<path fill-rule="evenodd" clip-rule="evenodd" d="M538.991 231.159C538.218 120.086 441.436 30.2668 322.159 30.2666C202.403 30.2666 105.321 120.809 105.321 232.5C105.321 344.191 202.403 434.733 322.159 434.733C441.447 434.733 538.238 344.896 538.992 233.808L538.991 234.004C538.053 361.718 417.756 465 269.498 465C120.658 465 0 360.906 0 232.5C0 104.094 120.658 0.000128093 269.498 0C417.819 0 538.155 103.37 538.991 231.159Z" fill="url(#paint0_linear_55_5)"/>
<path d="M321.5 437C441.622 437 539 345.666 539 233C539 120.334 441.622 29 321.5 29C201.378 29 104 120.334 104 233C104 345.666 201.378 437 321.5 437Z" fill="#FEFEFE"/>
<mask id="path-3-outside-1_55_5" maskUnits="userSpaceOnUse" x="55" y="90" width="420" height="285" fill="black">
<rect fill="white" x="55" y="90" width="420" height="285"/>
<path d="M469.286 110.067L465.38 110.16C456.912 110.358 450.668 111.152 446.456 112.414L446.408 112.427L446.361 112.441C442.912 113.382 440.928 115.091 439.827 117.434C438.763 120.131 438.07 124.906 438.07 132.197V269.943C438.07 279.57 437.508 289.002 436.381 298.237C435.518 307.591 433.647 316.018 430.718 323.475L430.715 323.486L430.711 323.495C424.683 338.621 411.719 350.94 392.603 360.694L392.602 360.694C373.466 370.595 347.335 370.574 317.118 366.652C315.688 366.614 314.142 366.594 312.477 366.594H312.389L312.302 366.59C307.472 366.422 302.53 366.339 297.478 366.339C291.985 366.339 286.826 366.422 282 366.59L281.913 366.594H281.826C279.151 366.594 277.855 366.42 276.891 366.299C276.349 366.232 276.114 366.189 275.055 366.307L269.498 366.93V352.432L274.039 352.013C274.053 352.012 274.067 352.011 274.08 352.009C274.248 351.835 274.433 351.661 274.636 351.49C275.057 351.135 275.509 350.834 275.981 350.573L276.086 350.516C276.236 350.438 276.946 350.019 277.424 347.772C277.964 345.233 278.293 341.058 278.293 335.007V244.212L248.856 363.306L247.916 367.105H237.578L236.57 363.426L201.396 234.924V316.089C201.396 326.413 201.722 334.19 202.339 339.526L202.459 340.441C203.098 344.877 204.281 347.264 205.389 348.422C206.699 349.792 209.182 351.184 213.56 352.099L217.536 352.93V367.999L211.722 367.039C210.044 366.762 207.58 366.594 204.222 366.594H204.095L203.969 366.587C200.675 366.421 197.553 366.339 194.603 366.339C192.33 366.339 189.939 366.421 187.429 366.585L187.266 366.594H187.103C184.806 366.594 183.029 366.753 181.706 367.012L175.744 368.181V353.251L179.334 352.195C182.087 351.385 183.567 350.269 184.371 349.181C185.355 347.827 186.356 345.185 186.86 340.595C187.375 335.74 187.646 328.96 187.646 320.178V208.204C187.646 202.01 187.373 197.826 186.93 195.402C186.903 195.349 186.838 195.229 186.7 195.042C186.412 194.647 185.966 194.167 185.379 193.637C185.147 193.428 184.908 193.226 184.67 193.033C184.311 193.318 183.913 193.64 183.476 193.997C180.916 196.086 177.305 199.163 172.926 202.939C164.215 210.451 152.521 220.679 140.561 230.898C128.594 241.123 116.234 251.449 106.087 259.233C101.024 263.117 96.4229 266.438 92.6504 268.809C90.7699 269.991 88.9973 270.999 87.4141 271.728C85.9978 272.38 84.1127 273.111 82.2159 273.111H69L78.9063 264.362L177.435 177.357L179.067 175.917L181.232 176.128C182.902 176.292 184.965 176.458 187.429 176.626L189.289 176.734C191.127 176.826 192.898 176.872 194.603 176.872C200.095 176.872 205.365 176.788 210.413 176.62C215.511 176.45 220.117 176.279 224.232 176.109L228.211 175.945L229.261 179.788L255.96 277.478L279.741 180.68L280.677 176.872H297.478C302.53 176.872 307.472 176.788 312.302 176.62H312.306C315.013 176.527 318.445 176.644 321.416 176.749C324.578 176.86 327.058 176.95 328.348 176.88L340.432 176.227L332.333 185.219L328.419 189.564L327.033 191.104L324.965 191.212C322.161 191.359 320.705 191.927 320.033 192.387L319.889 192.486L319.738 192.574C319.162 192.913 318.714 193.261 318.386 193.643C318.095 193.981 317.847 194.401 317.707 195.014C317.559 195.86 317.528 197.284 317.597 199.699C317.661 201.969 317.803 204.957 317.803 208.204V335.007C317.803 339.428 317.979 342.847 318.284 345.359C320.222 345.538 322.126 345.739 323.986 345.896C329.617 346.372 335.44 346.545 342.288 345.102L342.495 345.057L342.7 345.036H342.708C342.722 345.034 342.749 345.031 342.787 345.026C342.865 345.016 342.991 345 343.159 344.975C343.497 344.926 344.004 344.843 344.631 344.716C345.894 344.461 347.604 344.033 349.408 343.352C353.176 341.929 356.558 339.71 357.987 336.452C361.828 327.699 363.893 315.015 363.893 298.096V132.197C363.893 128.083 364.791 122.958 365.372 118.993C365.657 117.049 365.872 115.363 365.953 113.979H351.365C351.24 114.001 351.074 114.031 350.862 114.078C350.056 114.255 348.896 114.571 347.382 115.03C344.371 115.942 340.244 117.335 335.317 119.068C325.471 122.531 312.657 127.272 299.623 132.049C286.618 136.816 273.401 141.617 262.833 145.167C257.555 146.939 252.881 148.419 249.201 149.428C247.365 149.932 245.719 150.334 244.339 150.596C243.08 150.835 241.643 151.042 240.422 150.917L226.506 149.484L239.075 143.342L334.921 96.5117L335.808 96.0782L336.794 96.1075C343.71 96.3087 352.712 96.5103 363.804 96.7119L363.803 96.7129C375.153 96.9143 387.061 97.0137 399.526 97.0137C411.99 97.0137 424.037 96.9133 435.666 96.7119H435.668C447.593 96.5102 457.43 96.3079 465.183 96.1065L469.286 96V110.067ZM195.751 361.342C196.987 361.351 198.249 361.374 199.537 361.41C198.249 361.374 196.988 361.351 195.752 361.342L194.603 361.339L195.751 361.342ZM274.498 361.339L274.499 361.337V356.992H274.498V361.339ZM282.462 348.061C282.415 348.321 282.366 348.57 282.315 348.811C282.274 349.003 282.231 349.191 282.185 349.375C282.093 349.742 281.991 350.095 281.879 350.43C281.823 350.598 281.764 350.762 281.703 350.921H281.704C281.949 350.282 282.153 349.578 282.316 348.811C282.367 348.571 282.416 348.321 282.462 348.061ZM191.311 344.609C191.205 345.147 191.091 345.666 190.967 346.164H190.968C191.154 345.417 191.318 344.625 191.462 343.788C191.414 344.067 191.363 344.34 191.311 344.609ZM197.145 337.898C197.18 338.287 197.218 338.667 197.256 339.038L197.146 337.898C197.11 337.509 197.075 337.111 197.042 336.704L197.145 337.898ZM365.454 325.77C365.292 326.542 365.121 327.3 364.943 328.043L365.205 326.918C365.291 326.539 365.373 326.156 365.454 325.77ZM192.646 320.178H192.647V208.204H192.646V320.178ZM367.973 130.004C367.922 130.763 367.893 131.497 367.893 132.197V298.096C367.893 298.632 367.891 299.166 367.887 299.694C367.879 300.711 367.863 301.713 367.84 302.702C367.875 301.198 367.894 299.663 367.894 298.096V132.197C367.894 131.497 367.922 130.763 367.973 130.004ZM256.218 297.384L256.219 297.385L284.598 181.872L256.218 297.384ZM192.052 195.788C192.042 195.713 192.033 195.639 192.023 195.566L192.017 195.527C192.029 195.612 192.04 195.7 192.052 195.788ZM189.992 181.773C190.037 181.775 190.081 181.775 190.125 181.777C189.766 181.762 189.403 181.747 189.039 181.729L189.992 181.773ZM205.683 181.751C206.578 181.731 207.466 181.708 208.349 181.684C207.466 181.709 206.578 181.731 205.683 181.751ZM210.579 181.617L210.543 181.618C210.555 181.617 210.568 181.617 210.58 181.617C213.134 181.532 215.566 181.446 217.876 181.361L210.579 181.617Z"/>
</mask>
<path d="M469.286 110.067L465.38 110.16C456.912 110.358 450.668 111.152 446.456 112.414L446.408 112.427L446.361 112.441C442.912 113.382 440.928 115.091 439.827 117.434C438.763 120.131 438.07 124.906 438.07 132.197V269.943C438.07 279.57 437.508 289.002 436.381 298.237C435.518 307.591 433.647 316.018 430.718 323.475L430.715 323.486L430.711 323.495C424.683 338.621 411.719 350.94 392.603 360.694L392.602 360.694C373.466 370.595 347.335 370.574 317.118 366.652C315.688 366.614 314.142 366.594 312.477 366.594H312.389L312.302 366.59C307.472 366.422 302.53 366.339 297.478 366.339C291.985 366.339 286.826 366.422 282 366.59L281.913 366.594H281.826C279.151 366.594 277.855 366.42 276.891 366.299C276.349 366.232 276.114 366.189 275.055 366.307L269.498 366.93V352.432L274.039 352.013C274.053 352.012 274.067 352.011 274.08 352.009C274.248 351.835 274.433 351.661 274.636 351.49C275.057 351.135 275.509 350.834 275.981 350.573L276.086 350.516C276.236 350.438 276.946 350.019 277.424 347.772C277.964 345.233 278.293 341.058 278.293 335.007V244.212L248.856 363.306L247.916 367.105H237.578L236.57 363.426L201.396 234.924V316.089C201.396 326.413 201.722 334.19 202.339 339.526L202.459 340.441C203.098 344.877 204.281 347.264 205.389 348.422C206.699 349.792 209.182 351.184 213.56 352.099L217.536 352.93V367.999L211.722 367.039C210.044 366.762 207.58 366.594 204.222 366.594H204.095L203.969 366.587C200.675 366.421 197.553 366.339 194.603 366.339C192.33 366.339 189.939 366.421 187.429 366.585L187.266 366.594H187.103C184.806 366.594 183.029 366.753 181.706 367.012L175.744 368.181V353.251L179.334 352.195C182.087 351.385 183.567 350.269 184.371 349.181C185.355 347.827 186.356 345.185 186.86 340.595C187.375 335.74 187.646 328.96 187.646 320.178V208.204C187.646 202.01 187.373 197.826 186.93 195.402C186.903 195.349 186.838 195.229 186.7 195.042C186.412 194.647 185.966 194.167 185.379 193.637C185.147 193.428 184.908 193.226 184.67 193.033C184.311 193.318 183.913 193.64 183.476 193.997C180.916 196.086 177.305 199.163 172.926 202.939C164.215 210.451 152.521 220.679 140.561 230.898C128.594 241.123 116.234 251.449 106.087 259.233C101.024 263.117 96.4229 266.438 92.6504 268.809C90.7699 269.991 88.9973 270.999 87.4141 271.728C85.9978 272.38 84.1127 273.111 82.2159 273.111H69L78.9063 264.362L177.435 177.357L179.067 175.917L181.232 176.128C182.902 176.292 184.965 176.458 187.429 176.626L189.289 176.734C191.127 176.826 192.898 176.872 194.603 176.872C200.095 176.872 205.365 176.788 210.413 176.62C215.511 176.45 220.117 176.279 224.232 176.109L228.211 175.945L229.261 179.788L255.96 277.478L279.741 180.68L280.677 176.872H297.478C302.53 176.872 307.472 176.788 312.302 176.62H312.306C315.013 176.527 318.445 176.644 321.416 176.749C324.578 176.86 327.058 176.95 328.348 176.88L340.432 176.227L332.333 185.219L328.419 189.564L327.033 191.104L324.965 191.212C322.161 191.359 320.705 191.927 320.033 192.387L319.889 192.486L319.738 192.574C319.162 192.913 318.714 193.261 318.386 193.643C318.095 193.981 317.847 194.401 317.707 195.014C317.559 195.86 317.528 197.284 317.597 199.699C317.661 201.969 317.803 204.957 317.803 208.204V335.007C317.803 339.428 317.979 342.847 318.284 345.359C320.222 345.538 322.126 345.739 323.986 345.896C329.617 346.372 335.44 346.545 342.288 345.102L342.495 345.057L342.7 345.036H342.708C342.722 345.034 342.749 345.031 342.787 345.026C342.865 345.016 342.991 345 343.159 344.975C343.497 344.926 344.004 344.843 344.631 344.716C345.894 344.461 347.604 344.033 349.408 343.352C353.176 341.929 356.558 339.71 357.987 336.452C361.828 327.699 363.893 315.015 363.893 298.096V132.197C363.893 128.083 364.791 122.958 365.372 118.993C365.657 117.049 365.872 115.363 365.953 113.979H351.365C351.24 114.001 351.074 114.031 350.862 114.078C350.056 114.255 348.896 114.571 347.382 115.03C344.371 115.942 340.244 117.335 335.317 119.068C325.471 122.531 312.657 127.272 299.623 132.049C286.618 136.816 273.401 141.617 262.833 145.167C257.555 146.939 252.881 148.419 249.201 149.428C247.365 149.932 245.719 150.334 244.339 150.596C243.08 150.835 241.643 151.042 240.422 150.917L226.506 149.484L239.075 143.342L334.921 96.5117L335.808 96.0782L336.794 96.1075C343.71 96.3087 352.712 96.5103 363.804 96.7119L363.803 96.7129C375.153 96.9143 387.061 97.0137 399.526 97.0137C411.99 97.0137 424.037 96.9133 435.666 96.7119H435.668C447.593 96.5102 457.43 96.3079 465.183 96.1065L469.286 96V110.067ZM195.751 361.342C196.987 361.351 198.249 361.374 199.537 361.41C198.249 361.374 196.988 361.351 195.752 361.342L194.603 361.339L195.751 361.342ZM274.498 361.339L274.499 361.337V356.992H274.498V361.339ZM282.462 348.061C282.415 348.321 282.366 348.57 282.315 348.811C282.274 349.003 282.231 349.191 282.185 349.375C282.093 349.742 281.991 350.095 281.879 350.43C281.823 350.598 281.764 350.762 281.703 350.921H281.704C281.949 350.282 282.153 349.578 282.316 348.811C282.367 348.571 282.416 348.321 282.462 348.061ZM191.311 344.609C191.205 345.147 191.091 345.666 190.967 346.164H190.968C191.154 345.417 191.318 344.625 191.462 343.788C191.414 344.067 191.363 344.34 191.311 344.609ZM197.145 337.898C197.18 338.287 197.218 338.667 197.256 339.038L197.146 337.898C197.11 337.509 197.075 337.111 197.042 336.704L197.145 337.898ZM365.454 325.77C365.292 326.542 365.121 327.3 364.943 328.043L365.205 326.918C365.291 326.539 365.373 326.156 365.454 325.77ZM192.646 320.178H192.647V208.204H192.646V320.178ZM367.973 130.004C367.922 130.763 367.893 131.497 367.893 132.197V298.096C367.893 298.632 367.891 299.166 367.887 299.694C367.879 300.711 367.863 301.713 367.84 302.702C367.875 301.198 367.894 299.663 367.894 298.096V132.197C367.894 131.497 367.922 130.763 367.973 130.004ZM256.218 297.384L256.219 297.385L284.598 181.872L256.218 297.384ZM192.052 195.788C192.042 195.713 192.033 195.639 192.023 195.566L192.017 195.527C192.029 195.612 192.04 195.7 192.052 195.788ZM189.992 181.773C190.037 181.775 190.081 181.775 190.125 181.777C189.766 181.762 189.403 181.747 189.039 181.729L189.992 181.773ZM205.683 181.751C206.578 181.731 207.466 181.708 208.349 181.684C207.466 181.709 206.578 181.731 205.683 181.751ZM210.579 181.617L210.543 181.618C210.555 181.617 210.568 181.617 210.58 181.617C213.134 181.532 215.566 181.446 217.876 181.361L210.579 181.617Z" fill="#FFED2A"/>
<path d="M191.83 341.142L189.344 340.878L189.343 340.886L189.342 340.894L191.83 341.142ZM191.83 194.4L189.368 194.834L189.368 194.837L191.83 194.4ZM187.596 353.103L189.42 354.813C189.514 354.713 189.603 354.614 189.674 354.535L187.817 352.862L185.96 351.188C185.884 351.271 185.828 351.334 185.772 351.394L187.596 353.103ZM187.958 352.698L189.873 354.305C189.886 354.29 189.899 354.274 189.912 354.259C189.925 354.243 189.938 354.228 189.951 354.212L188.036 352.605L186.12 350.999C186.108 351.014 186.095 351.03 186.082 351.045C186.069 351.061 186.056 351.076 186.042 351.092L187.958 352.698ZM191.929 340.163L189.44 339.924C189.409 340.25 189.377 340.568 189.344 340.878L191.83 341.142L194.316 341.407C194.351 341.079 194.385 340.743 194.418 340.401L191.929 340.163ZM191.83 341.142L189.342 340.894C189.342 340.894 189.342 340.895 189.342 340.9C189.341 340.905 189.34 340.911 189.339 340.921C189.337 340.937 189.334 340.971 189.33 341.006L191.817 341.262L194.304 341.517C194.304 341.513 194.305 341.508 194.308 341.484C194.31 341.465 194.314 341.43 194.317 341.391L191.83 341.142ZM191.83 194.4L189.368 194.837L189.468 195.4L191.93 194.962L194.391 194.525L194.291 193.962L191.83 194.4ZM191.83 194.4L194.292 193.965C194.277 193.878 194.26 193.805 194.252 193.768C194.249 193.755 194.242 193.727 194.242 193.726C194.24 193.717 194.24 193.717 194.241 193.72L191.797 194.247L189.353 194.775C189.359 194.803 189.365 194.829 189.369 194.845C189.371 194.853 189.373 194.862 189.374 194.867C189.375 194.872 189.376 194.876 189.377 194.879C189.378 194.884 189.377 194.882 189.376 194.875C189.374 194.868 189.371 194.853 189.368 194.834L191.83 194.4ZM312.989 193.312L310.594 192.596C310.544 192.763 310.488 192.957 310.437 193.166L312.864 193.764L315.291 194.363C315.316 194.264 315.346 194.156 315.384 194.029L312.989 193.312ZM313.152 192.831L310.812 191.949C310.74 192.141 310.676 192.331 310.619 192.514L313.007 193.255L315.395 193.996C315.428 193.89 315.46 193.796 315.491 193.712L313.152 192.831ZM181.897 188.852L180.346 186.89C180.219 186.991 180.082 187.099 179.941 187.211L181.498 189.167L183.054 191.124C183.188 191.018 183.316 190.916 183.447 190.813L181.897 188.852ZM182.346 188.501L180.846 186.501C180.801 186.535 180.748 186.575 180.693 186.617L182.225 188.594L183.756 190.57C183.781 190.55 183.811 190.528 183.846 190.501L182.346 188.501ZM183.803 187.428L182.416 185.347C182.339 185.399 182.256 185.456 182.208 185.489L183.626 187.548L185.044 189.608C185.117 189.557 185.153 189.532 185.19 189.508L183.803 187.428ZM184.063 187.257L182.721 185.147C182.709 185.155 182.703 185.158 182.699 185.161C182.695 185.164 182.694 185.164 182.696 185.163L183.996 187.298L185.296 189.434C185.343 189.405 185.386 189.378 185.405 189.366L184.063 187.257ZM351.758 109.953L351.435 112.432C351.389 112.427 351.277 112.41 351.129 112.363L351.879 109.979L352.628 107.594C352.411 107.525 352.218 107.492 352.081 107.474L351.758 109.953ZM351.758 109.953L352.081 107.474C351.943 107.456 351.8 107.446 351.649 107.443L351.605 109.942L351.561 112.442C351.524 112.441 351.481 112.439 351.435 112.432L351.758 109.953ZM426.081 324.155L428.357 325.188C428.48 324.917 428.604 324.641 428.725 324.362L426.431 323.367L424.137 322.373C424.03 322.62 423.919 322.868 423.805 323.121L426.081 324.155ZM469.286 110.067L469.404 115.066L474.286 114.951V110.067H469.286ZM465.38 110.16L465.497 115.158L465.498 115.158L465.38 110.16ZM446.456 112.414L447.763 117.241L447.827 117.223L447.891 117.204L446.456 112.414ZM446.408 112.427L445.101 107.601L445.04 107.618L444.98 107.636L446.408 112.427ZM446.361 112.441L447.677 117.265L447.733 117.25L447.788 117.233L446.361 112.441ZM439.827 117.434L435.302 115.307L435.234 115.451L435.176 115.599L439.827 117.434ZM436.381 298.237L431.418 297.631L431.409 297.704L431.402 297.777L436.381 298.237ZM430.718 323.475L426.064 321.648L425.987 321.843L425.927 322.044L430.718 323.475ZM430.715 323.486L435.279 325.528L435.412 325.23L435.506 324.917L430.715 323.486ZM430.711 323.495L426.147 321.452L426.105 321.547L426.066 321.643L430.711 323.495ZM392.603 360.694L389.067 364.23L391.638 366.8L394.875 365.148L392.603 360.694ZM392.602 360.694L396.137 357.158L393.552 354.572L390.304 356.253L392.602 360.694ZM317.118 366.652L317.761 361.694L317.507 361.661L317.251 361.654L317.118 366.652ZM312.389 366.594L312.215 371.59L312.302 371.594H312.389V366.594ZM312.302 366.59L312.128 371.587H312.128L312.302 366.59ZM282 366.59L282.173 371.587H282.174L282 366.59ZM281.913 366.594V371.594H282L282.086 371.59L281.913 366.594ZM276.891 366.299L277.514 361.338L277.504 361.337L276.891 366.299ZM275.055 366.307L274.501 361.338L274.499 361.339L275.055 366.307ZM269.498 366.93H264.498V372.52L270.054 371.898L269.498 366.93ZM269.498 352.432L269.038 347.454L264.498 347.873V352.432H269.498ZM274.039 352.013L273.683 347.026L273.631 347.03L273.579 347.035L274.039 352.013ZM274.08 352.009L274.84 356.95L276.506 356.694L277.677 355.481L274.08 352.009ZM274.636 351.49L277.857 355.314L277.859 355.312L274.636 351.49ZM275.981 350.573L273.595 346.179L273.578 346.188L273.561 346.197L275.981 350.573ZM276.086 350.516L273.779 346.079L273.739 346.1L273.7 346.122L276.086 350.516ZM277.424 347.772L282.314 348.813L282.314 348.813L277.424 347.772ZM278.293 244.212H283.293L273.439 243.012L278.293 244.212ZM248.856 363.306L253.71 364.506L253.71 364.505L248.856 363.306ZM247.916 367.105V372.105H251.83L252.77 368.306L247.916 367.105ZM237.578 367.105L232.756 368.426L233.763 372.105H237.578V367.105ZM236.57 363.426L231.747 364.746L231.748 364.746L236.57 363.426ZM201.396 234.924L206.219 233.604L196.396 234.924H201.396ZM202.339 339.526L197.372 340.101L197.376 340.139L197.381 340.177L202.339 339.526ZM202.459 340.441L197.501 341.092L197.505 341.123L197.51 341.154L202.459 340.441ZM205.389 348.422L209.003 344.967L209.002 344.966L205.389 348.422ZM213.56 352.099L214.583 347.204L214.583 347.204L213.56 352.099ZM217.536 352.93H222.536V348.866L218.559 348.035L217.536 352.93ZM217.536 367.999L216.722 372.932L222.536 373.891V367.999H217.536ZM211.722 367.039L210.908 371.973L210.908 371.973L211.722 367.039ZM204.095 366.594L203.857 371.588L203.976 371.594H204.095V366.594ZM203.969 366.587L203.717 371.581L203.731 371.582L203.969 366.587ZM187.429 366.585L187.705 371.577L187.73 371.576L187.755 371.574L187.429 366.585ZM187.266 366.594V371.594H187.404L187.542 371.586L187.266 366.594ZM181.706 367.012L180.745 362.105L180.744 362.105L181.706 367.012ZM175.744 368.181H170.744V374.256L176.706 373.087L175.744 368.181ZM175.744 353.251L174.333 348.455L170.744 349.51V353.251H175.744ZM179.334 352.195L180.745 356.992L180.745 356.992L179.334 352.195ZM184.371 349.181L188.392 352.153L188.404 352.137L188.416 352.121L184.371 349.181ZM186.86 340.595L191.83 341.141L191.831 341.132L191.832 341.123L186.86 340.595ZM186.93 195.402L191.848 194.504L191.717 193.784L191.385 193.133L186.93 195.402ZM186.7 195.042L182.66 197.988L182.668 198L182.677 198.011L186.7 195.042ZM185.379 193.637L188.73 189.925L188.725 189.922L185.379 193.637ZM184.67 193.033L187.819 189.15L184.703 186.623L181.561 189.117L184.67 193.033ZM183.476 193.997L186.637 197.87L186.639 197.869L183.476 193.997ZM172.926 202.939L169.661 199.153L169.661 199.153L172.926 202.939ZM140.561 230.898L137.313 227.097L137.313 227.097L140.561 230.898ZM106.087 259.233L103.044 255.266L103.044 255.266L106.087 259.233ZM92.6504 268.809L89.9898 264.575L89.9896 264.575L92.6504 268.809ZM87.4141 271.728L89.505 276.269L89.5054 276.269L87.4141 271.728ZM69 273.111L65.6904 269.363L55.7843 278.111H69V273.111ZM78.9063 264.362L75.5967 260.615L75.5967 260.615L78.9063 264.362ZM177.435 177.357L174.127 173.608L174.125 173.61L177.435 177.357ZM179.067 175.917L179.552 170.941L177.389 170.73L175.759 172.168L179.067 175.917ZM181.232 176.128L181.721 171.152L181.717 171.152L181.232 176.128ZM187.429 176.626L187.089 181.615L187.114 181.617L187.139 181.618L187.429 176.626ZM189.289 176.734L188.999 181.726L189.019 181.727L189.039 181.728L189.289 176.734ZM210.413 176.62L210.579 181.617L210.58 181.617L210.413 176.62ZM224.232 176.109L224.026 171.114L224.026 171.114L224.232 176.109ZM228.211 175.945L233.034 174.627L231.984 170.786L228.005 170.95L228.211 175.945ZM229.261 179.788L224.438 181.106L224.438 181.106L229.261 179.788ZM255.96 277.478L251.137 278.797L256.218 297.387L260.816 278.671L255.96 277.478ZM279.741 180.68L274.885 179.486L274.885 179.487L279.741 180.68ZM280.677 176.872V171.872H276.757L275.821 175.679L280.677 176.872ZM312.302 176.62V171.62H312.215L312.128 171.624L312.302 176.62ZM312.306 176.62V181.62H312.392L312.478 181.618L312.306 176.62ZM321.416 176.749L321.239 181.745L321.24 181.745L321.416 176.749ZM328.348 176.88L328.078 171.887L328.077 171.887L328.348 176.88ZM340.432 176.227L344.147 179.573L352.246 170.581L340.162 171.234L340.432 176.227ZM332.333 185.219L328.618 181.872L328.618 181.872L332.333 185.219ZM328.419 189.564L324.704 186.218L324.703 186.218L328.419 189.564ZM327.033 191.104L327.294 196.097L329.362 195.989L330.748 194.45L327.033 191.104ZM324.965 191.212L324.704 186.218L324.703 186.218L324.965 191.212ZM320.033 192.387L317.209 188.261L317.2 188.266L320.033 192.387ZM319.889 192.486L322.406 196.805L322.568 196.712L322.721 196.606L319.889 192.486ZM319.738 192.574L317.22 188.254L317.211 188.259L317.202 188.264L319.738 192.574ZM318.386 193.643L322.175 196.906L322.179 196.901L318.386 193.643ZM317.707 195.014L312.832 193.901L312.804 194.026L312.782 194.153L317.707 195.014ZM317.597 199.699L322.595 199.559L322.595 199.557L317.597 199.699ZM318.284 345.359L313.32 345.962L313.807 349.967L317.824 350.338L318.284 345.359ZM323.986 345.896L324.407 340.913L324.406 340.913L323.986 345.896ZM342.288 345.102L343.319 349.994L343.328 349.992L342.288 345.102ZM342.495 345.057L341.985 340.084L341.718 340.111L341.455 340.167L342.495 345.057ZM342.7 345.036V340.036H342.444L342.19 340.063L342.7 345.036ZM342.708 345.036V350.036H343.063L343.415 349.986L342.708 345.036ZM342.787 345.026L342.151 340.067L342.143 340.068L342.135 340.069L342.787 345.026ZM343.159 344.975L342.442 340.027L342.432 340.029L342.423 340.03L343.159 344.975ZM344.631 344.716L343.641 339.815L343.638 339.816L344.631 344.716ZM349.408 343.352L351.174 348.029L351.174 348.029L349.408 343.352ZM357.987 336.452L353.408 334.442L353.408 334.443L357.987 336.452ZM365.372 118.993L360.425 118.268L360.425 118.269L365.372 118.993ZM365.953 113.979L370.944 114.271L371.254 108.979H365.953V113.979ZM351.365 113.979V108.979H350.928L350.498 109.054L351.365 113.979ZM350.862 114.078L351.934 118.962L351.944 118.96L350.862 114.078ZM347.382 115.03L348.831 119.815L348.833 119.814L347.382 115.03ZM335.317 119.068L336.976 123.785L336.976 123.785L335.317 119.068ZM299.623 132.049L297.902 127.355L297.902 127.355L299.623 132.049ZM262.833 145.167L264.424 149.907L264.425 149.907L262.833 145.167ZM249.201 149.428L247.879 144.606L247.877 144.607L249.201 149.428ZM244.339 150.596L245.271 155.509L245.272 155.509L244.339 150.596ZM240.422 150.917L239.91 155.89L239.913 155.891L240.422 150.917ZM226.506 149.484L224.311 144.992L208.602 152.669L225.994 154.458L226.506 149.484ZM239.075 143.342L236.88 138.85L236.88 138.85L239.075 143.342ZM334.921 96.5117L337.116 101.004L337.116 101.004L334.921 96.5117ZM335.808 96.0782L335.956 91.0804L334.722 91.0437L333.612 91.586L335.808 96.0782ZM336.794 96.1075L336.645 101.105L336.648 101.105L336.794 96.1075ZM363.804 96.7119L367.326 100.261L375.723 91.9277L363.895 91.7127L363.804 96.7119ZM363.803 96.7129L360.281 93.1639L351.879 101.502L363.714 101.712L363.803 96.7129ZM435.666 96.7119V91.7119H435.623L435.579 91.7126L435.666 96.7119ZM435.668 96.7119V101.712H435.71L435.752 101.711L435.668 96.7119ZM465.183 96.1065L465.053 91.1082L465.053 91.1082L465.183 96.1065ZM469.286 96H474.286V90.8685L469.156 91.0017L469.286 96ZM195.751 361.342L195.787 356.343L195.778 356.343L195.768 356.343L195.751 361.342ZM195.752 361.342L195.788 356.343L195.779 356.343L195.769 356.343L195.752 361.342ZM274.498 361.339H269.498V373.41L278.033 364.874L274.498 361.339ZM274.499 361.337L278.034 364.873L279.499 363.409V361.337H274.499ZM274.499 356.992H279.499V351.992H274.499V356.992ZM274.498 356.992V351.992H269.498V356.992H274.498ZM282.462 348.061L287.385 348.933L277.542 347.172L282.462 348.061ZM282.315 348.811L287.205 349.856L287.207 349.847L282.315 348.811ZM282.185 349.375L287.035 350.591L287.036 350.588L282.185 349.375ZM281.879 350.43L277.137 348.844L277.135 348.848L281.879 350.43ZM281.703 350.921L277.035 349.13L274.429 355.921H281.703V350.921ZM281.704 350.921V355.921H285.142L286.372 352.711L281.704 350.921ZM282.316 348.811L287.207 349.851L287.207 349.851L282.316 348.811ZM191.311 344.609L196.217 345.576L196.218 345.567L196.22 345.558L191.311 344.609ZM190.967 346.164L186.115 344.955L184.569 351.164H190.967V346.164ZM190.968 346.164V351.164H194.876L195.82 347.372L190.968 346.164ZM197.145 337.898L192.163 338.328L192.164 338.337L192.165 338.347L197.145 337.898ZM197.256 339.038L192.282 339.547L202.233 338.557L197.256 339.038ZM197.146 337.898L192.167 338.359L192.168 338.369L192.169 338.379L197.146 337.898ZM197.042 336.704L202.023 336.275L192.058 337.109L197.042 336.704ZM364.943 328.043L360.073 326.908L369.805 329.207L364.943 328.043ZM365.205 326.918L370.075 328.052L370.078 328.038L370.081 328.024L365.205 326.918ZM192.646 320.178H187.646V325.178H192.646V320.178ZM192.647 320.178V325.178H197.647V320.178H192.647ZM192.647 208.204H197.647V203.204H192.647V208.204ZM192.646 208.204V203.204H187.646V208.204H192.646ZM367.887 299.694L372.887 299.733V299.731L367.887 299.694ZM367.84 302.702L362.841 302.586L372.839 302.819L367.84 302.702ZM256.218 297.384L251.362 296.191L250.92 297.992L251.76 299.647L256.218 297.384ZM256.219 297.385L251.761 299.649L257.86 311.663L261.075 298.578L256.219 297.385ZM284.598 181.872L289.454 183.065L279.742 180.68L284.598 181.872ZM192.052 195.788L187.098 196.463L197.008 195.127L192.052 195.788ZM192.023 195.566L196.977 194.887L196.97 194.837L196.962 194.786L192.023 195.566ZM192.017 195.527L196.956 194.748L187.066 196.226L192.017 195.527ZM189.992 181.773L189.761 186.767L189.77 186.768L189.992 181.773ZM190.125 181.777L189.916 186.773L190.352 176.783L190.125 181.777ZM189.039 181.729L189.27 176.734L188.792 186.722L189.039 181.729ZM208.349 181.684L208.49 186.681L208.213 176.685L208.349 181.684ZM210.579 181.617L210.719 186.616L210.736 186.615L210.754 186.614L210.579 181.617ZM210.543 181.618L210.128 176.636L210.683 186.617L210.543 181.618ZM210.58 181.617V186.617H210.663L210.746 186.615L210.58 181.617ZM217.876 181.361L218.06 186.358L217.701 176.365L217.876 181.361ZM469.286 110.067L469.168 105.069L465.262 105.161L465.38 110.16L465.498 115.158L469.404 115.066L469.286 110.067ZM465.38 110.16L465.263 105.161C456.628 105.363 449.865 106.173 445.021 107.625L446.456 112.414L447.891 117.204C451.471 116.132 457.196 115.352 465.497 115.158L465.38 110.16ZM446.456 112.414L445.149 107.588L445.101 107.601L446.408 112.427L447.715 117.254L447.763 117.241L446.456 112.414ZM446.408 112.427L444.98 107.636L444.933 107.65L446.361 112.441L447.788 117.233L447.835 117.219L446.408 112.427ZM446.361 112.441L445.045 107.618C440.42 108.88 437.123 111.43 435.302 115.307L439.827 117.434L444.352 119.56C444.732 118.751 445.403 117.885 447.677 117.265L446.361 112.441ZM439.827 117.434L435.176 115.599C433.75 119.212 433.07 124.777 433.07 132.197H438.07H443.07C443.07 125.034 443.776 121.049 444.478 119.268L439.827 117.434ZM438.07 132.197H433.07V269.943H438.07H443.07V132.197H438.07ZM438.07 269.943H433.07C433.07 279.375 432.519 288.604 431.418 297.631L436.381 298.237L441.344 298.842C442.496 289.399 443.07 279.764 443.07 269.943H438.07ZM436.381 298.237L431.402 297.777C430.574 306.753 428.79 314.707 426.064 321.648L430.718 323.475L435.372 325.303C438.504 317.33 440.462 308.428 441.36 298.696L436.381 298.237ZM430.718 323.475L425.927 322.044L425.924 322.054L430.715 323.486L435.506 324.917L435.509 324.907L430.718 323.475ZM430.715 323.486L426.151 321.443L426.147 321.452L430.711 323.495L435.275 325.537L435.279 325.528L430.715 323.486ZM430.711 323.495L426.066 321.643C420.636 335.268 408.79 346.822 390.33 356.241L392.603 360.694L394.875 365.148C414.648 355.059 428.729 341.973 435.356 325.346L430.711 323.495ZM392.603 360.694L396.138 357.159L396.137 357.158L392.602 360.694L389.066 364.229L389.067 364.23L392.603 360.694ZM392.602 360.694L390.304 356.253C372.657 365.383 347.917 365.608 317.761 361.694L317.118 366.652L316.474 371.611C346.753 375.541 374.275 375.806 394.9 365.134L392.602 360.694ZM317.118 366.652L317.251 361.654C315.774 361.615 314.184 361.594 312.477 361.594V366.594V371.594C314.1 371.594 315.602 371.614 316.985 371.651L317.118 366.652ZM312.477 366.594V361.594H312.389V366.594V371.594H312.477V366.594ZM312.389 366.594L312.562 361.597L312.475 361.594L312.302 366.59L312.128 371.587L312.215 371.59L312.389 366.594ZM312.302 366.59L312.476 361.594C307.585 361.423 302.585 361.339 297.478 361.339V366.339V371.339C302.475 371.339 307.359 371.422 312.128 371.587L312.302 366.59ZM297.478 366.339V361.339C291.935 361.339 286.717 361.423 281.826 361.594L282 366.59L282.174 371.587C286.935 371.422 292.035 371.339 297.478 371.339V366.339ZM282 366.59L281.826 361.594L281.739 361.597L281.913 366.594L282.086 371.59L282.173 371.587L282 366.59ZM281.913 366.594V361.594H281.826V366.594V371.594H281.913V366.594ZM281.826 366.594V361.594C279.434 361.594 278.361 361.445 277.514 361.338L276.891 366.299L276.268 371.261C277.349 371.396 278.868 371.594 281.826 371.594V366.594ZM276.891 366.299L277.504 361.337C277.321 361.315 276.833 361.245 276.251 361.235C275.68 361.225 275.114 361.27 274.501 361.338L275.055 366.307L275.609 371.277C276.055 371.227 276.135 371.234 276.082 371.233C276.018 371.232 275.918 371.217 276.277 371.262L276.891 366.299ZM275.055 366.307L274.499 361.339L268.942 361.961L269.498 366.93L270.054 371.898L275.611 371.276L275.055 366.307ZM269.498 366.93H274.498V352.432H269.498H264.498V366.93H269.498ZM269.498 352.432L269.957 357.411L274.498 356.992L274.039 352.013L273.579 347.035L269.038 347.454L269.498 352.432ZM274.039 352.013L274.395 357.001C274.62 356.985 274.798 356.957 274.84 356.95L274.08 352.009L273.32 347.067C273.333 347.065 273.376 347.058 273.433 347.051C273.491 347.044 273.577 347.034 273.683 347.026L274.039 352.013ZM274.08 352.009L277.677 355.481C277.728 355.429 277.788 355.372 277.857 355.314L274.636 351.49L271.415 347.665C271.078 347.949 270.768 348.24 270.483 348.536L274.08 352.009ZM274.636 351.49L277.859 355.312C277.995 355.197 278.17 355.075 278.4 354.948L275.981 350.573L273.561 346.197C272.848 346.592 272.118 347.072 271.413 347.667L274.636 351.49ZM275.981 350.573L278.367 354.966L278.472 354.909L276.086 350.516L273.7 346.122L273.595 346.179L275.981 350.573ZM276.086 350.516L278.393 354.952C280.322 353.948 281.651 351.933 282.314 348.813L277.424 347.772L272.533 346.732C272.38 347.454 272.266 347.5 272.436 347.239C272.528 347.097 272.692 346.881 272.954 346.647C273.084 346.53 273.226 346.419 273.381 346.315C273.541 346.208 273.683 346.129 273.779 346.079L276.086 350.516ZM277.424 347.772L282.314 348.813C282.967 345.744 283.293 341.141 283.293 335.007H278.293H273.293C273.293 340.974 272.961 344.723 272.533 346.732L277.424 347.772ZM278.293 335.007H283.293V244.212H278.293H273.293V335.007H278.293ZM278.293 244.212L273.439 243.012L244.002 362.106L248.856 363.306L253.71 364.505L283.147 245.411L278.293 244.212ZM248.856 363.306L244.002 362.105L243.062 365.905L247.916 367.105L252.77 368.306L253.71 364.506L248.856 363.306ZM247.916 367.105V362.105H237.578V367.105V372.105H247.916V367.105ZM237.578 367.105L242.4 365.785L241.392 362.105L236.57 363.426L231.748 364.746L232.756 368.426L237.578 367.105ZM236.57 363.426L241.392 362.105L206.219 233.604L201.396 234.924L196.573 236.245L231.747 364.746L236.57 363.426ZM201.396 234.924H196.396V316.089H201.396H206.396V234.924H201.396ZM201.396 316.089H196.396C196.396 326.475 196.722 334.478 197.372 340.101L202.339 339.526L207.306 338.952C206.722 333.903 206.396 326.35 206.396 316.089H201.396ZM202.339 339.526L197.381 340.177L197.501 341.092L202.459 340.441L207.416 339.791L207.296 338.876L202.339 339.526ZM202.459 340.441L197.51 341.154C198.213 346.037 199.626 349.631 201.776 351.879L205.389 348.422L209.002 344.966C209.003 344.968 208.739 344.682 208.396 343.818C208.058 342.965 207.685 341.655 207.408 339.729L202.459 340.441ZM205.389 348.422L201.775 351.878C204.056 354.264 207.643 355.97 212.537 356.993L213.56 352.099L214.583 347.204C210.72 346.397 209.342 345.321 209.003 344.967L205.389 348.422ZM213.56 352.099L212.537 356.993L216.513 357.824L217.536 352.93L218.559 348.035L214.583 347.204L213.56 352.099ZM217.536 352.93H212.536V367.999H217.536H222.536V352.93H217.536ZM217.536 367.999L218.35 363.065L212.536 362.106L211.722 367.039L210.908 371.973L216.722 372.932L217.536 367.999ZM211.722 367.039L212.536 362.106C210.472 361.766 207.701 361.594 204.222 361.594V366.594V371.594C207.458 371.594 209.615 371.759 210.908 371.973L211.722 367.039ZM204.222 366.594V361.594H204.095V366.594V371.594H204.222V366.594ZM204.095 366.594L204.333 361.599L204.207 361.593L203.969 366.587L203.731 371.582L203.857 371.588L204.095 366.594ZM203.969 366.587L204.221 361.594C200.852 361.424 197.646 361.339 194.603 361.339V366.339V371.339C197.46 371.339 200.497 371.419 203.717 371.581L203.969 366.587ZM194.603 366.339V361.339C192.21 361.339 189.71 361.425 187.103 361.595L187.429 366.585L187.755 371.574C190.168 371.416 192.449 371.339 194.603 371.339V366.339ZM187.429 366.585L187.153 361.592L186.99 361.601L187.266 366.594L187.542 371.586L187.705 371.577L187.429 366.585ZM187.266 366.594V361.594H187.103V366.594V371.594H187.266V366.594ZM187.103 366.594V361.594C184.603 361.594 182.483 361.764 180.745 362.105L181.706 367.012L182.666 371.918C183.574 371.741 185.009 371.594 187.103 371.594V366.594ZM181.706 367.012L180.744 362.105L174.782 363.274L175.744 368.181L176.706 373.087L182.668 371.918L181.706 367.012ZM175.744 368.181H180.744V353.251H175.744H170.744V368.181H175.744ZM175.744 353.251L177.155 358.048L180.745 356.992L179.334 352.195L177.923 347.399L174.333 348.455L175.744 353.251ZM179.334 352.195L180.745 356.992C184.217 355.971 186.763 354.357 188.392 352.153L184.371 349.181L180.35 346.21C180.345 346.216 180.244 346.355 179.907 346.569C179.556 346.791 178.942 347.099 177.923 347.399L179.334 352.195ZM184.371 349.181L188.416 352.121C190.15 349.734 191.288 346.074 191.83 341.141L186.86 340.595L181.89 340.05C181.423 344.297 180.56 345.921 180.326 346.242L184.371 349.181ZM186.86 340.595L191.832 341.123C192.374 336.012 192.646 329.031 192.646 320.178H187.646H182.646C182.646 328.89 182.376 335.469 181.888 340.068L186.86 340.595ZM187.646 320.178H192.646V208.204H187.646H182.646V320.178H187.646ZM187.646 208.204H192.646C192.646 201.963 192.378 197.399 191.848 194.504L186.93 195.402L182.011 196.301C182.368 198.254 182.646 202.058 182.646 208.204H187.646ZM186.93 195.402L191.385 193.133C191.241 192.85 191.033 192.494 190.723 192.074L186.7 195.042L182.677 198.011C182.665 197.995 182.636 197.955 182.597 197.891C182.554 197.822 182.513 197.747 182.475 197.672L186.93 195.402ZM186.7 195.042L190.74 192.097C190.18 191.328 189.467 190.591 188.73 189.925L185.379 193.637L182.028 197.348C182.233 197.533 182.389 197.688 182.502 197.808C182.618 197.932 182.663 197.993 182.66 197.988L186.7 195.042ZM185.379 193.637L188.725 189.922C188.411 189.639 188.103 189.38 187.819 189.15L184.67 193.033L181.521 196.917C181.713 197.073 181.883 197.216 182.032 197.351L185.379 193.637ZM184.67 193.033L181.561 189.117C181.18 189.42 180.764 189.756 180.313 190.124L183.476 193.997L186.639 197.869C187.062 197.523 187.442 197.217 187.779 196.95L184.67 193.033ZM183.476 193.997L180.315 190.123C177.696 192.26 174.038 195.378 169.661 199.153L172.926 202.939L176.191 206.726C180.572 202.949 184.136 199.911 186.637 197.87L183.476 193.997ZM172.926 202.939L169.661 199.153C160.906 206.703 149.268 216.882 137.313 227.097L140.561 230.898L143.809 234.7C155.774 224.477 167.524 214.2 176.191 206.726L172.926 202.939ZM140.561 230.898L137.313 227.097C125.357 237.313 113.08 247.567 103.044 255.266L106.087 259.233L109.13 263.201C119.388 255.332 131.831 244.934 143.809 234.7L140.561 230.898ZM106.087 259.233L103.044 255.266C98.0261 259.115 93.5678 262.326 89.9898 264.575L92.6504 268.809L95.311 273.042C99.278 270.549 104.022 267.12 109.13 263.201L106.087 259.233ZM92.6504 268.809L89.9896 264.575C88.2018 265.699 86.6322 266.583 85.3228 267.186L87.4141 271.728L89.5054 276.269C91.3624 275.414 93.338 274.282 95.3112 273.042L92.6504 268.809ZM87.4141 271.728L85.3232 267.186C84.7247 267.461 84.1362 267.702 83.5653 267.872C82.9877 268.045 82.5403 268.111 82.2159 268.111V273.111V278.111C85.2553 278.111 87.9713 276.975 89.505 276.269L87.4141 271.728ZM82.2159 273.111V268.111H69V273.111V278.111H82.2159V273.111ZM69 273.111L72.3096 276.858L82.2159 268.11L78.9063 264.362L75.5967 260.615L65.6904 269.363L69 273.111ZM78.9063 264.362L82.2159 268.11L180.744 181.105L177.435 177.357L174.125 173.61L75.5967 260.615L78.9063 264.362ZM177.435 177.357L180.743 181.107L182.375 179.667L179.067 175.917L175.759 172.168L174.127 173.608L177.435 177.357ZM179.067 175.917L178.582 180.894L180.747 181.105L181.232 176.128L181.717 171.152L179.552 170.941L179.067 175.917ZM181.232 176.128L180.743 181.105C182.479 181.275 184.595 181.445 187.089 181.615L187.429 176.626L187.769 171.638C185.334 171.472 183.324 171.31 181.721 171.152L181.232 176.128ZM187.429 176.626L187.139 181.618L188.999 181.726L189.289 176.734L189.579 171.743L187.719 171.635L187.429 176.626ZM189.289 176.734L189.039 181.728C190.954 181.824 192.808 181.872 194.603 181.872V176.872V171.872C192.988 171.872 191.3 171.829 189.539 171.741L189.289 176.734ZM194.603 176.872V181.872C200.146 181.872 205.472 181.787 210.579 181.617L210.413 176.62L210.247 171.622C205.258 171.788 200.044 171.872 194.603 171.872V176.872ZM210.413 176.62L210.58 181.617C215.688 181.446 220.307 181.276 224.438 181.105L224.232 176.109L224.026 171.114C219.926 171.283 215.334 171.453 210.246 171.622L210.413 176.62ZM224.232 176.109L224.438 181.105L228.417 180.941L228.211 175.945L228.005 170.95L224.026 171.114L224.232 176.109ZM228.211 175.945L223.388 177.264L224.438 181.106L229.261 179.788L234.084 178.469L233.034 174.627L228.211 175.945ZM229.261 179.788L224.438 181.106L251.137 278.797L255.96 277.478L260.783 276.16L234.084 178.469L229.261 179.788ZM255.96 277.478L260.816 278.671L284.596 181.872L279.741 180.68L274.885 179.487L251.104 276.286L255.96 277.478ZM279.741 180.68L284.596 181.873L285.532 178.066L280.677 176.872L275.821 175.679L274.885 179.486L279.741 180.68ZM280.677 176.872V181.872H297.478V176.872V171.872H280.677V176.872ZM297.478 176.872V181.872C302.585 181.872 307.585 181.788 312.476 181.617L312.302 176.62L312.128 171.624C307.359 171.789 302.475 171.872 297.478 171.872V176.872ZM312.302 176.62V181.62H312.306V176.62V171.62H312.302V176.62ZM312.306 176.62L312.478 181.618C314.976 181.532 318.224 181.639 321.239 181.745L321.416 176.749L321.592 171.752C318.666 171.648 315.049 171.523 312.134 171.623L312.306 176.62ZM321.416 176.749L321.24 181.745C324.25 181.851 327.041 181.958 328.619 181.872L328.348 176.88L328.077 171.887C327.074 171.941 324.906 171.868 321.591 171.752L321.416 176.749ZM328.348 176.88L328.618 181.872L340.702 181.219L340.432 176.227L340.162 171.234L328.078 171.887L328.348 176.88ZM340.432 176.227L336.717 172.88L328.618 181.872L332.333 185.219L336.048 188.565L344.147 179.573L340.432 176.227ZM332.333 185.219L328.618 181.872L324.704 186.218L328.419 189.564L332.134 192.911L336.048 188.565L332.333 185.219ZM328.419 189.564L324.703 186.218L323.317 187.757L327.033 191.104L330.748 194.45L332.134 192.91L328.419 189.564ZM327.033 191.104L326.772 186.11L324.704 186.218L324.965 191.212L325.226 196.205L327.294 196.097L327.033 191.104ZM324.965 191.212L324.703 186.218C321.44 186.389 318.945 187.072 317.209 188.261L320.033 192.387L322.857 196.512C322.624 196.672 322.61 196.616 323.016 196.505C323.404 196.399 324.106 196.263 325.227 196.205L324.965 191.212ZM320.033 192.387L317.2 188.266L317.056 188.365L319.889 192.486L322.721 196.606L322.865 196.507L320.033 192.387ZM319.889 192.486L317.371 188.166L317.22 188.254L319.738 192.574L322.255 196.893L322.406 196.805L319.889 192.486ZM319.738 192.574L317.202 188.264C316.336 188.774 315.395 189.451 314.592 190.386L318.386 193.643L322.179 196.901C322.101 196.992 322.052 197.029 322.064 197.019C322.07 197.014 322.089 197 322.124 196.976C322.16 196.952 322.209 196.921 322.274 196.883L319.738 192.574ZM318.386 193.643L314.597 190.381C313.82 191.284 313.169 192.429 312.832 193.901L317.707 195.014L322.581 196.128C322.562 196.213 322.518 196.355 322.43 196.524C322.343 196.693 322.246 196.823 322.175 196.906L318.386 193.643ZM317.707 195.014L312.782 194.153C312.533 195.576 312.532 197.501 312.599 199.842L317.597 199.699L322.595 199.557C322.561 198.387 322.554 197.524 322.569 196.884C322.585 196.217 322.621 195.937 322.632 195.876L317.707 195.014ZM317.597 199.699L312.599 199.84C312.666 202.233 312.803 205.05 312.803 208.204H317.803H322.803C322.803 204.865 322.655 201.706 322.595 199.559L317.597 199.699ZM317.803 208.204H312.803V335.007H317.803H322.803V208.204H317.803ZM317.803 335.007H312.803C312.803 339.535 312.982 343.175 313.32 345.962L318.284 345.359L323.247 344.757C322.976 342.52 322.803 339.32 322.803 335.007H317.803ZM318.284 345.359L317.824 350.338C319.662 350.508 321.695 350.72 323.565 350.878L323.986 345.896L324.406 340.913C322.557 340.757 320.782 340.569 318.744 340.381L318.284 345.359ZM323.986 345.896L323.565 350.878C329.411 351.372 335.786 351.581 343.319 349.994L342.288 345.102L341.257 340.209C335.094 341.508 329.823 341.371 324.407 340.913L323.986 345.896ZM342.288 345.102L343.328 349.992L343.535 349.948L342.495 345.057L341.455 340.167L341.248 340.211L342.288 345.102ZM342.495 345.057L343.004 350.031L343.209 350.01L342.7 345.036L342.19 340.063L341.985 340.084L342.495 345.057ZM342.7 345.036V350.036H342.708V345.036V340.036H342.7V345.036ZM342.708 345.036L343.415 349.986C343.404 349.988 343.394 349.989 343.386 349.99C343.379 349.991 343.372 349.992 343.367 349.993C343.356 349.994 343.349 349.995 343.345 349.996C343.342 349.996 343.34 349.996 343.341 349.996C343.342 349.996 343.344 349.996 343.348 349.995C343.363 349.993 343.397 349.989 343.439 349.984L342.787 345.026L342.135 340.069C342.138 340.069 342.14 340.069 342.129 340.07C342.126 340.07 342.111 340.072 342.096 340.074C342.088 340.075 342.075 340.077 342.061 340.078C342.047 340.08 342.026 340.083 342.001 340.087L342.708 345.036ZM342.787 345.026L343.423 349.986C343.503 349.976 343.673 349.954 343.895 349.921L343.159 344.975L342.423 340.03C342.309 340.047 342.227 340.057 342.151 340.067L342.787 345.026ZM343.159 344.975L343.876 349.924C344.301 349.862 344.9 349.763 345.624 349.617L344.631 344.716L343.638 339.816C343.108 339.924 342.693 339.991 342.442 340.027L343.159 344.975ZM344.631 344.716L345.62 349.618C347.076 349.324 349.057 348.828 351.174 348.029L349.408 343.352L347.642 338.674C346.151 339.237 344.712 339.599 343.641 339.815L344.631 344.716ZM349.408 343.352L351.174 348.029C355.379 346.441 360.324 343.571 362.566 338.46L357.987 336.452L353.408 334.443C352.792 335.848 350.973 337.416 347.641 338.674L349.408 343.352ZM357.987 336.452L362.565 338.461C366.809 328.791 368.893 315.311 368.893 298.096H363.893H358.893C358.893 314.72 356.847 326.606 353.408 334.442L357.987 336.452ZM363.893 298.096H368.893V132.197H363.893H358.893V298.096H363.893ZM363.893 132.197H368.893C368.893 128.556 369.698 123.959 370.319 119.718L365.372 118.993L360.425 118.269C359.884 121.958 358.893 127.609 358.893 132.197H363.893ZM365.372 118.993L370.319 119.719C370.606 117.758 370.85 115.887 370.944 114.271L365.953 113.979L360.961 113.686C360.894 114.838 360.707 116.341 360.425 118.268L365.372 118.993ZM365.953 113.979V108.979H351.365V113.979V118.979H365.953V113.979ZM351.365 113.979L350.498 109.054C350.321 109.085 350.08 109.13 349.78 109.197L350.862 114.078L351.944 118.96C352.067 118.933 352.159 118.916 352.232 118.903L351.365 113.979ZM350.862 114.078L349.789 109.195C348.794 109.413 347.489 109.772 345.931 110.245L347.382 115.03L348.833 119.814C350.303 119.369 351.318 119.098 351.934 118.962L350.862 114.078ZM347.382 115.03L345.932 110.244C342.811 111.19 338.598 112.614 333.658 114.352L335.317 119.068L336.976 123.785C341.889 122.057 345.931 120.693 348.831 119.815L347.382 115.03ZM335.317 119.068L333.658 114.352C323.771 117.829 310.908 122.588 297.902 127.355L299.623 132.049L301.343 136.744C314.406 131.957 327.171 127.234 336.976 123.785L335.317 119.068ZM299.623 132.049L297.902 127.355C284.891 132.124 271.735 136.903 261.241 140.428L262.833 145.167L264.425 149.907C275.067 146.332 288.345 141.509 301.344 136.744L299.623 132.049ZM262.833 145.167L261.242 140.428C255.994 142.189 251.423 143.635 247.879 144.606L249.201 149.428L250.523 154.251C254.338 153.204 259.116 151.69 264.424 149.907L262.833 145.167ZM249.201 149.428L247.877 144.607C246.106 145.093 244.603 145.457 243.406 145.684L244.339 150.596L245.272 155.509C246.835 155.212 248.623 154.772 250.524 154.25L249.201 149.428ZM244.339 150.596L243.406 145.684C242.189 145.915 241.372 145.988 240.931 145.943L240.422 150.917L239.913 155.891C241.914 156.095 243.971 155.756 245.271 155.509L244.339 150.596ZM240.422 150.917L240.934 145.943L227.018 144.511L226.506 149.484L225.994 154.458L239.91 155.89L240.422 150.917ZM226.506 149.484L228.701 153.977L241.27 147.835L239.075 143.342L236.88 138.85L224.311 144.992L226.506 149.484ZM239.075 143.342L241.27 147.835L337.116 101.004L334.921 96.5117L332.726 92.0193L236.88 138.85L239.075 143.342ZM334.921 96.5117L337.116 101.004L338.003 100.57L335.808 96.0782L333.612 91.586L332.725 92.0195L334.921 96.5117ZM335.808 96.0782L335.659 101.076L336.645 101.105L336.794 96.1075L336.942 91.1097L335.956 91.0804L335.808 96.0782ZM336.794 96.1075L336.648 101.105C343.59 101.307 352.612 101.509 363.713 101.711L363.804 96.7119L363.895 91.7127C352.812 91.5113 343.83 91.3101 336.939 91.1096L336.794 96.1075ZM363.804 96.7119L360.282 93.1629L360.281 93.1639L363.803 96.7129L367.325 100.262L367.326 100.261L363.804 96.7119ZM363.803 96.7129L363.714 101.712C375.097 101.914 387.035 102.014 399.526 102.014V97.0137V92.0137C387.087 92.0137 375.209 91.9145 363.892 91.7137L363.803 96.7129ZM399.526 97.0137V102.014C412.017 102.014 424.093 101.913 435.752 101.711L435.666 96.7119L435.579 91.7126C423.981 91.9135 411.963 92.0137 399.526 92.0137V97.0137ZM435.666 96.7119V101.712H435.668V96.7119V91.7119H435.666V96.7119ZM435.668 96.7119L435.752 101.711C447.686 101.509 457.539 101.307 465.313 101.105L465.183 96.1065L465.053 91.1082C457.321 91.309 447.5 91.5111 435.583 91.7126L435.668 96.7119ZM465.183 96.1065L465.313 101.105L469.416 100.998L469.286 96L469.156 91.0017L465.053 91.1082L465.183 96.1065ZM469.286 96H464.286V110.067H469.286H474.286V96H469.286ZM195.751 361.342L195.714 366.342C196.913 366.351 198.141 366.373 199.397 366.409L199.537 361.41L199.677 356.412C198.357 356.376 197.06 356.352 195.787 356.343L195.751 361.342ZM199.537 361.41L199.677 356.412C198.357 356.376 197.061 356.352 195.788 356.343L195.752 361.342L195.715 366.342C196.914 366.351 198.141 366.373 199.397 366.409L199.537 361.41ZM195.752 361.342L195.769 356.343L194.62 356.339L194.603 361.339L194.586 366.338L195.735 366.342L195.752 361.342ZM194.603 361.339L194.585 366.338L195.733 366.342L195.751 361.342L195.768 356.343L194.62 356.339L194.603 361.339ZM274.498 361.339L278.033 364.874L278.034 364.873L274.499 361.337L270.963 357.802L270.962 357.803L274.498 361.339ZM274.499 361.337H279.499V356.992H274.499H269.499V361.337H274.499ZM274.499 356.992V351.992H274.498V356.992V361.992H274.499V356.992ZM274.498 356.992H269.498V361.339H274.498H279.498V356.992H274.498ZM282.462 348.061L277.542 347.172C277.503 347.383 277.464 347.583 277.423 347.776L282.315 348.811L287.207 349.847C287.268 349.558 287.326 349.26 287.382 348.951L282.462 348.061ZM282.315 348.811L277.425 347.767C277.394 347.913 277.364 348.044 277.334 348.163L282.185 349.375L287.036 350.588C287.098 350.339 287.154 350.094 287.205 349.856L282.315 348.811ZM282.185 349.375L277.335 348.16C277.271 348.413 277.205 348.641 277.137 348.844L281.879 350.43L286.621 352.015C286.777 351.548 286.914 351.072 287.035 350.591L282.185 349.375ZM281.879 350.43L277.135 348.848C277.104 348.943 277.07 349.037 277.035 349.13L281.703 350.921L286.371 352.711C286.458 352.486 286.542 352.252 286.622 352.011L281.879 350.43ZM281.703 350.921V355.921H281.704V350.921V345.921H281.703V350.921ZM281.704 350.921L286.372 352.711C286.723 351.795 286.997 350.837 287.207 349.851L282.316 348.811L277.425 347.772C277.309 348.32 277.174 348.768 277.035 349.131L281.704 350.921ZM282.316 348.811L287.207 349.851C287.269 349.557 287.329 349.251 287.385 348.933L282.462 348.061L277.538 347.19C277.503 347.392 277.465 347.586 277.425 347.772L282.316 348.811ZM191.311 344.609L186.405 343.643C186.313 344.112 186.216 344.548 186.115 344.955L190.967 346.164L195.819 347.372C195.965 346.783 196.097 346.183 196.217 345.576L191.311 344.609ZM190.967 346.164V351.164H190.968V346.164V341.164H190.967V346.164ZM190.968 346.164L195.82 347.372C196.039 346.49 196.228 345.577 196.389 344.635L191.462 343.788L186.534 342.94C186.408 343.672 186.269 344.343 186.116 344.955L190.968 346.164ZM191.462 343.788L186.534 342.94C186.494 343.175 186.449 343.414 186.402 343.661L191.311 344.609L196.22 345.558C196.276 345.267 196.334 344.958 196.389 344.635L191.462 343.788ZM197.145 337.898L192.165 338.347C192.203 338.767 192.243 339.17 192.282 339.547L197.256 339.038L202.23 338.528C202.192 338.163 202.157 337.808 202.125 337.45L197.145 337.898ZM197.256 339.038L202.233 338.557L202.123 337.418L197.146 337.898L192.169 338.379L192.279 339.518L197.256 339.038ZM197.146 337.898L202.125 337.438C202.09 337.064 202.057 336.685 202.026 336.3L197.042 336.704L192.058 337.109C192.093 337.538 192.13 337.955 192.167 338.359L197.146 337.898ZM197.042 336.704L192.06 337.134L192.163 338.328L197.145 337.898L202.126 337.469L202.023 336.275L197.042 336.704ZM365.454 325.77L360.56 324.743C360.409 325.466 360.248 326.178 360.081 326.878L364.943 328.043L369.805 329.207C369.994 328.421 370.175 327.617 370.347 326.796L365.454 325.77ZM364.943 328.043L369.813 329.177L370.075 328.052L365.205 326.918L360.335 325.783L360.073 326.908L364.943 328.043ZM365.205 326.918L370.081 328.024C370.176 327.607 370.264 327.194 370.347 326.796L365.454 325.77L360.56 324.743C360.482 325.117 360.406 325.47 360.329 325.811L365.205 326.918ZM192.646 320.178V325.178H192.647V320.178V315.178H192.646V320.178ZM192.647 320.178H197.647V208.204H192.647H187.647V320.178H192.647ZM192.647 208.204V203.204H192.646V208.204V213.204H192.647V208.204ZM192.646 208.204H187.646V320.178H192.646H197.646V208.204H192.646ZM367.973 130.004L362.984 129.668C362.927 130.513 362.893 131.361 362.893 132.197H367.893H372.893C372.893 131.632 372.916 131.012 372.962 130.339L367.973 130.004ZM367.893 132.197H362.893V298.096H367.893H372.893V132.197H367.893ZM367.893 298.096H362.893C362.893 298.62 362.891 299.141 362.887 299.656L367.887 299.694L372.887 299.731C372.891 299.19 372.893 298.645 372.893 298.096H367.893ZM367.887 299.694L362.887 299.654C362.879 300.645 362.864 301.622 362.841 302.586L367.84 302.702L372.839 302.819C372.862 301.805 372.879 300.776 372.887 299.733L367.887 299.694ZM367.84 302.702L372.839 302.819C372.874 301.278 372.894 299.704 372.894 298.096H367.894H362.894C362.894 299.623 362.875 301.119 362.841 302.586L367.84 302.702ZM367.894 298.096H372.894V132.197H367.894H362.894V298.096H367.894ZM367.894 132.197H372.894C372.894 131.627 372.917 131.007 372.962 130.339L367.973 130.004L362.984 129.668C362.927 130.518 362.894 131.366 362.894 132.197H367.894ZM256.218 297.384L251.76 299.647L251.761 299.649L256.219 297.385L260.677 295.122L260.676 295.12L256.218 297.384ZM256.219 297.385L261.075 298.578L289.454 183.065L284.598 181.872L279.742 180.68L251.363 296.193L256.219 297.385ZM284.598 181.872L279.742 180.68L251.362 296.191L256.218 297.384L261.073 298.576L289.453 183.065L284.598 181.872ZM192.052 195.788L197.008 195.127C197.005 195.104 197.002 195.082 196.997 195.039C196.992 195.001 196.985 194.946 196.977 194.887L192.023 195.566L187.069 196.244C187.083 196.348 187.07 196.255 187.096 196.448L192.052 195.788ZM192.023 195.566L196.962 194.786L196.956 194.748L192.017 195.527L187.078 196.307L187.084 196.345L192.023 195.566ZM192.017 195.527L187.066 196.226C187.079 196.315 187.074 196.291 187.098 196.463L192.052 195.788L197.006 195.112C197.006 195.108 196.979 194.91 196.968 194.829L192.017 195.527ZM189.992 181.773L189.77 186.768C189.824 186.77 189.873 186.772 189.89 186.772C189.916 186.773 189.91 186.773 189.898 186.772L190.125 181.777L190.352 176.783C190.296 176.78 190.246 176.778 190.228 176.778C190.2 176.777 190.205 176.777 190.214 176.777L189.992 181.773ZM190.125 181.777L190.334 176.782C189.982 176.767 189.633 176.752 189.286 176.735L189.039 181.729L188.792 186.722C189.173 186.741 189.55 186.758 189.916 186.773L190.125 181.777ZM189.039 181.729L188.808 186.723L189.761 186.767L189.992 181.773L190.223 176.778L189.27 176.734L189.039 181.729ZM205.683 181.751L205.795 186.75C206.703 186.73 207.603 186.706 208.485 186.682L208.349 181.684L208.213 176.685C207.329 176.709 206.452 176.733 205.571 176.753L205.683 181.751ZM208.349 181.684L208.207 176.686C207.332 176.71 206.455 176.733 205.571 176.753L205.683 181.751L205.795 186.75C206.701 186.73 207.599 186.707 208.49 186.681L208.349 181.684ZM210.579 181.617L210.439 176.619L210.403 176.62L210.543 181.618L210.683 186.617L210.719 186.616L210.579 181.617ZM210.543 181.618L210.958 186.601C210.823 186.612 210.717 186.615 210.663 186.617C210.611 186.618 210.567 186.617 210.58 186.617V181.617V176.617C210.578 176.617 210.563 176.617 210.544 176.618C210.525 176.618 210.496 176.618 210.46 176.619C210.393 176.62 210.274 176.624 210.128 176.636L210.543 181.618ZM210.58 181.617L210.746 186.615C213.307 186.53 215.745 186.443 218.06 186.358L217.876 181.361L217.692 176.365C215.387 176.45 212.961 176.535 210.414 176.62L210.58 181.617ZM217.876 181.361L217.701 176.365L210.404 176.621L210.579 181.617L210.754 186.614L218.051 186.358L217.876 181.361Z" fill="#040404" mask="url(#path-3-outside-1_55_5)"/>
<defs>
<linearGradient id="paint0_linear_55_5" x1="348.644" y1="435.02" x2="155.569" y2="73.3198" gradientUnits="userSpaceOnUse">
<stop offset="0.0192308" stop-color="#F67D31"/>
<stop offset="1" stop-color="#8F0177"/>
</linearGradient>
</defs>
</svg>
